<svg xmlns="http://www.w3.org/2000/svg" xmlns:xlink="http://www.w3.org/1999/xlink" viewBox="0 0 168.1 168.1"><defs><style>.cls-1{fill:#0072bc;}.cls-2{fill:#fff;}.cls-3{fill:url(#_Á_ó_ð_ðÆ_41);}.cls-4{fill:url(#_Á_ó_ð_ðÆ_34);}</style><linearGradient id="_Á_ó_ð_ðÆ_41" x1="92.11" y1="72.82" x2="81.56" y2="61.37" gradientUnits="userSpaceOnUse"><stop offset="0" stop-color="#c8da2b"/><stop offset="1" stop-color="#8dc63f"/></linearGradient><linearGradient id="_Á_ó_ð_ðÆ_34" x1="41.16" y1="88.82" x2="54.99" y2="104.02" gradientUnits="userSpaceOnUse"><stop offset="0" stop-color="#e2e6e9"/><stop offset="1" stop-color="#818e95"/></linearGradient></defs><title>Asset 1</title><g id="Layer_2" data-name="Layer 2"><circle class="cls-1" cx="84.05" cy="84.05" r="84.05" transform="translate(-34.81 84.05) rotate(-45)"/><circle class="cls-2" cx="84.05" cy="84.05" r="58.83" transform="translate(-34.81 84.05) rotate(-45)"/><path class="cls-2" d="M17.6,96.09l-2.74,3.08,1,.59,2.45-.51.32,1.5-7.34,1.53-.31-1.51,3.22-.67-3.82-2.19L10,96.13l3.77,2.27,3.5-4.11Z"/><path class="cls-2" d="M17.08,91.63a2.58,2.58,0,0,1-2.55,3.05A2.75,2.75,0,1,1,14,89.21,2.59,2.59,0,0,1,17.08,91.63Zm-4.55.51c.08.77.79,1.22,1.84,1.11s1.64-.71,1.55-1.49-.79-1.23-1.82-1.11S12.44,91.35,12.53,92.14Z"/><path class="cls-2" d="M12.35,85.44a1.11,1.11,0,0,0,1.31,1.22l2.95-.11L16.66,88l-5.55.21,0-1.44,1.09-.05a1.67,1.67,0,0,1-1.24-1.49,1,1,0,0,1,0-.18L12.37,85A2.42,2.42,0,0,0,12.35,85.44Z"/><path class="cls-2" d="M14.29,79.25,14.17,83c1.08,0,1.4-.43,1.42-1.11,0-.52-.12-1-.52-1.11l0-1.42A2.47,2.47,0,0,1,16.69,82c-.05,1.57-1.1,2.5-2.88,2.45s-2.9-1.07-2.85-2.67,1.24-2.56,3.15-2.49Zm-2.23,2.54c0,.64.39,1,1.15,1.13l.07-2.21C12.49,80.76,12.08,81.17,12.06,81.79Z"/><path class="cls-2" d="M17.11,75.34a1.14,1.14,0,0,1-.71.08A2.31,2.31,0,0,1,17,77.18a1.53,1.53,0,0,1-1.77,1.5c-1-.12-1.41-.7-1.48-1.82l0-.58c0-.73.07-1.15-.51-1.22-.37,0-.58.21-.64.77s.07,1,.64,1.09L13,78.3c-1.27-.24-1.81-1.08-1.64-2.58s.83-2.19,1.95-2.06l3.07.35a.78.78,0,0,0,.71-.25l.17,0Zm-2.62-.13a1.71,1.71,0,0,1,.1.62l0,.5c0,.61.17.85.59.9s.63-.23.68-.71c.08-.72-.34-1.19-1.17-1.28Z"/><path class="cls-2" d="M18.81,67.19c-.52,2-2.25,2.93-4.58,2.33s-3.43-2.23-2.91-4.28a2.86,2.86,0,0,1,3.35-2.37l-.36,1.43a1.5,1.5,0,0,0-1.7,1.22c-.3,1.17.42,2.11,2,2.52s2.64-.05,2.94-1.21a1.45,1.45,0,0,0-.94-1.94L17,63.43C18.64,64,19.27,65.39,18.81,67.19Z"/><path class="cls-2" d="M20.7,61a2.57,2.57,0,0,1-3.63,1.6A2.57,2.57,0,0,1,15.31,59c.6-1.63,1.91-2.23,3.68-1.59A2.56,2.56,0,0,1,20.7,61Zm-4.29-1.56c-.27.73.16,1.45,1.15,1.81s1.78.09,2.05-.65-.16-1.44-1.14-1.8S16.68,58.67,16.41,59.42Z"/><path class="cls-2" d="M23.43,54.34l-3.1-1.46a.86.86,0,0,0-1.3.41,1.07,1.07,0,0,0,.49,1.51l3,1.42-.62,1.3-5-2.36.62-1.3.72.34a1.83,1.83,0,0,1-.1-1.89,1.72,1.72,0,0,1,2.53-.86L24,53Z"/><path class="cls-2" d="M25.82,50.09C25,51.55,24,52,22.9,51.42l.71-1.21c.58.19.86-.05,1.19-.62s.42-1,.13-1.16c-.13-.08-.29,0-.57.23L23,49.87c-.8.73-1.21.7-1.79.36-1-.57-1.16-1.68-.45-2.9s1.81-1.71,2.83-1.14l-.69,1.2c-.44-.25-.83-.08-1.17.52-.26.43-.24.82,0,1s.33.08.63-.21l1.37-1.31a1.33,1.33,0,0,1,1.69-.28l.06,0C26.51,47.69,26.61,48.74,25.82,50.09Z"/><path class="cls-2" d="M28.41,45.92c-.53.78-1.09,1-1.81.47l-2.73-1.84-.4.59-.79-.53.4-.59-1.24-.83.81-1.2,1.23.84.45-.67.79.54-.44.66L27.08,45c.41.28.55.26.76,0a1.88,1.88,0,0,0,.16-.29l.84.56C28.7,45.42,28.58,45.65,28.41,45.92Z"/><path class="cls-2" d="M27.63,39.78a1.11,1.11,0,0,0,.25,1.77l2.35,1.78-.87,1.14-4.42-3.34L25.8,40l.87.66a1.71,1.71,0,0,1,0-2l.11-.13,1.17.88A3,3,0,0,0,27.63,39.78Z"/><path class="cls-2" d="M34,38.79l-.55-.48a1.89,1.89,0,0,1-.48,1.79,1.71,1.71,0,0,1-2.66.13l-2.8-2.45.95-1.08L31,39a.85.85,0,0,0,1.36,0,1.06,1.06,0,0,0,0-1.59l-2.5-2.2,1-1.07,4.16,3.65Z"/><path class="cls-2" d="M37.5,35.31c-1.19,1.14-2.57,1.08-3.83-.24s-1.32-2.77-.12-3.92a2.21,2.21,0,0,1,3.23-.09l-1,1c-.62-.42-1-.43-1.44,0-.65.63-.34,1.34.37,2.07s1.47.9,2,.4a1,1,0,0,0,.15-1.33l1-1A2.28,2.28,0,0,1,37.5,35.31Z"/><path class="cls-2" d="M41.13,32c-.72.61-1.31.63-1.87,0l-2.11-2.52-.55.46L36,29.18l.54-.45-1-1.14,1.11-.93,1,1.14.62-.51.61.73-.61.52,1.86,2.21c.32.38.46.41.75.16a1.24,1.24,0,0,0,.23-.23l.65.77C41.55,31.62,41.37,31.81,41.13,32Z"/><path class="cls-2" d="M38.72,25.92l-.87-1.15L39,23.9,39.87,25Zm3.77,4.95-3.38-4.41,1.15-.88L43.63,30Z"/><path class="cls-2" d="M46.71,27.94a2.58,2.58,0,0,1-3.88-.87,2.75,2.75,0,1,1,4.6-3A2.59,2.59,0,0,1,46.71,27.94Zm-2.54-3.81c-.65.43-.73,1.26-.14,2.14s1.38,1.13,2,.7.73-1.26.16-2.13S44.83,23.69,44.17,24.13Z"/><path class="cls-2" d="M52.84,24.19l-1.63-3a.86.86,0,0,0-1.29-.44,1.06,1.06,0,0,0-.5,1.51L51,25.18l-1.27.69L47.1,21l1.26-.69.38.7a1.84,1.84,0,0,1,1-1.58,1.72,1.72,0,0,1,2.55.81l1.78,3.27Z"/><path class="cls-2" d="M57.82,21.79l-2.64-7,5.07-1.91.45,1.2-3.63,1.37.6,1.59L61,15.76l.45,1.2-3.36,1.27.69,1.82,3.8-1.44.45,1.21Z"/><path class="cls-2" d="M67.91,20.8l-.78-2.87a1.58,1.58,0,0,1-1.28,1.2c-1.37.38-2.55-.55-3-2.15s.2-3,1.49-3.38a1.66,1.66,0,0,1,1.73.48l-.22-.79,1.39-.38,2,7.51ZM65,14.67c-.69.19-1,.93-.73,1.93s.91,1.48,1.6,1.29,1-.93.75-1.9S65.69,14.48,65,14.67Z"/><path class="cls-2" d="M73.32,17.4l-.13-.72a1.92,1.92,0,0,1-1.5,1.1,1.72,1.72,0,0,1-2.16-1.57l-.64-3.66,1.41-.25.59,3.37c.12.65.48.92,1.09.82a1.06,1.06,0,0,0,1-1.28l-.57-3.27,1.41-.25,1,5.46Z"/><path class="cls-2" d="M75.37,10.84l-.15-1.43,1.43-.15.16,1.43ZM76,17l-.59-5.52,1.43-.15.59,5.51Z"/><path class="cls-2" d="M81.64,16.69a1.58,1.58,0,0,1-1.58-.76l.13,3L78.75,19l-.33-7.79,1.44-.06,0,.82a1.66,1.66,0,0,1,1.51-1c1.45-.06,2.37,1.12,2.44,2.77S83,16.64,81.64,16.69Zm-.52-4.51c-.72,0-1.19.67-1.14,1.71s.56,1.65,1.28,1.61,1.18-.68,1.14-1.69S81.85,12.15,81.12,12.18Z"/><path class="cls-2" d="M91.16,16.89l.25-3.69a.7.7,0,0,0-.73-.77,1,1,0,0,0-1.06,1l-.22,3.32L88,16.67,88.21,13a.7.7,0,0,0-.73-.77,1,1,0,0,0-1,1l-.23,3.32-1.44-.1.38-5.53,1.43.09,0,.69A1.77,1.77,0,0,1,88.09,11a1.6,1.6,0,0,1,1.45.92,1.84,1.84,0,0,1,1.67-.71,1.59,1.59,0,0,1,1.65,1.83L92.59,17Z"/><path class="cls-2" d="M98.78,15.68,95.12,15c-.14,1.07.23,1.45.89,1.57s1,0,1.18-.35l1.4.24a2.45,2.45,0,0,1-2.82,1.18c-1.55-.27-2.32-1.44-2-3.19s1.48-2.73,3-2.45,2.36,1.6,2,3.48Zm-2.19-2.57c-.63-.11-1,.24-1.28,1l2.18.39C97.55,13.69,97.2,13.22,96.59,13.11Z"/><path class="cls-2" d="M102.56,19.13l.89-3.31a.85.85,0,0,0-.63-1.2,1.06,1.06,0,0,0-1.41.75l-.86,3.21-1.39-.37,1.44-5.36,1.39.38-.21.77a1.81,1.81,0,0,1,1.84-.43,1.73,1.73,0,0,1,1.3,2.34l-1,3.59Z"/><path class="cls-2" d="M106.6,20.46c-.9-.31-1.22-.8-.93-1.63l1.07-3.11-.67-.23.31-.9.67.23.48-1.41,1.36.47-.48,1.41.76.26-.31.9-.76-.26-.95,2.74c-.16.47-.11.61.25.73l.32.08-.32,1C107.15,20.62,106.9,20.56,106.6,20.46Z"/><path class="cls-2" d="M116.45,17.83l-2.67,5.61-1.39-.66,2.67-5.61-2-1,.55-1.16L119,17.62l-.55,1.16Z"/><path class="cls-2" d="M121,24.65l-3.23-1.85c-.5.95-.28,1.44.31,1.77s.92.36,1.23.07l1.23.7a2.45,2.45,0,0,1-3.05.16c-1.36-.78-1.7-2.14-.81-3.68s2.31-2.07,3.69-1.27,1.67,2.3.72,3.95Zm-1.2-3.16c-.55-.32-1.07-.13-1.53.49l1.91,1.1A1.12,1.12,0,0,0,119.77,21.49Z"/><path class="cls-2" d="M122.32,28.57c-1.35-.94-1.57-2.3-.53-3.81s2.44-1.84,3.8-.9a2.2,2.2,0,0,1,.74,3.14l-1.13-.78c.28-.69.21-1.08-.27-1.41-.75-.51-1.38-.07-2,.77s-.58,1.62,0,2a1,1,0,0,0,1.33-.12l1.13.78A2.27,2.27,0,0,1,122.32,28.57Z"/><path class="cls-2" d="M127.71,32.57,129.87,30c.47-.57.36-1,0-1.35a1.06,1.06,0,0,0-1.55.13l-2.12,2.57-1.11-.91,4.76-5.78,1.11.91-1.74,2.12A1.82,1.82,0,0,1,131,28a1.71,1.71,0,0,1,.17,2.64l-2.36,2.87Z"/><path class="cls-2" d="M132.23,36.78l2.41-2.43a.85.85,0,0,0,0-1.36,1.06,1.06,0,0,0-1.59-.05l-2.34,2.37-1-1,3.91-3.95,1,1-.56.58a1.81,1.81,0,0,1,1.81.53,1.73,1.73,0,0,1,0,2.68l-2.61,2.64Z"/><path class="cls-2" d="M135.56,40.58a2.56,2.56,0,0,1,.42-3.94,2.56,2.56,0,0,1,4,.24c1.12,1.32,1,2.76-.45,4A2.56,2.56,0,0,1,135.56,40.58Zm3.49-2.95c-.51-.59-1.34-.58-2.15.11s-1,1.5-.46,2.09,1.34.58,2.13-.09S139.56,38.24,139.05,37.63Z"/><path class="cls-2" d="M138,43.43,144,39l.85,1.15-6,4.45Z"/><path class="cls-2" d="M140.83,47.72a2.87,2.87,0,0,1,4.82-3.1c.94,1.46.62,2.87-1,3.89A2.57,2.57,0,0,1,140.83,47.72Zm3.85-2.46c-.42-.66-1.25-.75-2.14-.18s-1.15,1.36-.73,2,1.25.75,2.12.19S145.11,45.92,144.68,45.26Z"/><path class="cls-2" d="M141.89,53.83c-.7-1.35-.53-2.47.27-2.91l.68,1.33a.93.93,0,0,0-.1,1.2,1.13,1.13,0,0,0,1.56.57l.73-.38a2,2,0,0,1-1.37-1.06c-.63-1.22-.09-2.52,1.45-3.31s3-.47,3.66.69a1.78,1.78,0,0,1-.13,1.81l.76-.39.63,1.21-5.1,2.64C143.77,55.83,142.66,55.32,141.89,53.83Zm6-3c-.32-.62-1.12-.74-2.05-.25s-1.23,1.16-.91,1.77,1.13.84,2,.38S148.17,51.43,147.84,50.79Z"/><path class="cls-2" d="M145.66,59a1.58,1.58,0,0,1-1.85-1.23,2.82,2.82,0,0,1-.16-.49l1-.42a1.06,1.06,0,0,0,.09.38.89.89,0,0,0,1.19.47h0l4.56-4.13.61,1.47-3.27,2.67,4.17-.48.57,1.37Z"/><path class="cls-2" d="M148.54,64.07l7.18-2.13.44,1.48L149,65.55Z"/><path class="cls-2" d="M150.11,70.14l3.34-.76a.86.86,0,0,0,.77-1.12,1.06,1.06,0,0,0-1.32-.89l-3.25.73-.31-1.4,5.41-1.22.31,1.4-.78.18a1.79,1.79,0,0,1,1.24,1.42,1.72,1.72,0,0,1-1.46,2.24l-3.63.82Z"/><path class="cls-2" d="M150.84,75c-.23-1.67.28-2.65,1.48-2.85l.19,1.4c-.58.2-.65.56-.56,1.21s.27,1,.61,1c.15,0,.25-.16.31-.53l.3-1.77c.18-1.06.52-1.3,1.19-1.39,1.13-.15,1.95.62,2.14,2s-.38,2.47-1.54,2.65l-.19-1.38c.5-.07.7-.44.61-1.13-.07-.49-.32-.79-.62-.75s-.3.14-.36.56l-.28,1.87A1.31,1.31,0,0,1,153,77.11h-.08C151.78,77.27,151.05,76.5,150.84,75Z"/><path class="cls-2" d="M151.37,79.86c-.06-.94.26-1.42,1.14-1.48l3.27-.23,0-.71.95-.06.05.7,1.48-.1.1,1.43-1.48.11,0,.8-.95.06-.06-.8-2.89.2c-.49,0-.59.14-.57.52a2.85,2.85,0,0,0,.06.32l-1,.07C151.44,80.43,151.4,80.18,151.37,79.86Z"/><path class="cls-2" d="M151.5,81.62l5.55-.14,0,1.44-5.54.13Zm6.22-.13,1.43,0,0,1.44-1.44,0Z"/><path class="cls-2" d="M151.47,86c0-.94.4-1.4,1.27-1.37l3.28.08,0-.7,1,0,0,.71,1.49,0,0,1.44-1.49,0,0,.8-.95,0,0-.8-2.9-.08c-.49,0-.61.08-.62.46a2.23,2.23,0,0,0,0,.33l-1,0C151.49,86.53,151.46,86.27,151.47,86Z"/><path class="cls-2" d="M151.18,91.1l.73.07a1.91,1.91,0,0,1-.67-1.73,1.73,1.73,0,0,1,2.08-1.69l3.7.33-.13,1.44-3.4-.31c-.67-.06-1,.22-1.08.84a1.06,1.06,0,0,0,1,1.25l3.32.29L156.58,93l-5.52-.5Z"/><path class="cls-2" d="M150.55,95.37c.15-.93.58-1.33,1.45-1.19l3.24.52.11-.7,1,.15-.11.7,1.47.23-.23,1.42L156,96.27l-.13.79-.94-.15.12-.79-2.86-.46c-.48-.08-.61,0-.67.37a1.57,1.57,0,0,0,0,.33l-1-.16C150.49,95.94,150.5,95.69,150.55,95.37Z"/><path class="cls-2" d="M151.61,102.16l.83-3.63c-1.06-.2-1.46.15-1.61.81-.12.51-.07,1,.3,1.2l-.32,1.38a2.46,2.46,0,0,1-1-2.88c.35-1.53,1.56-2.24,3.29-1.84s2.65,1.6,2.29,3.16-1.71,2.27-3.57,1.84Zm2.68-2.07c.14-.62-.19-1.07-.92-1.33l-.5,2.16A1.14,1.14,0,0,0,154.29,100.09Z"/><path class="cls-2" d="M23,130.42l2.39-2,1.38,1.65-2.56,2.15,4.46,5.32-.93.78-4.88-5.82a1.55,1.55,0,0,1-.4-1.06A1.34,1.34,0,0,1,23,130.42Zm7.51,5.36-1.38-1.65L33,130.86l-1.78-2.12a5.71,5.71,0,0,1-2.84-.15,8,8,0,0,1-1.77-.77,5.13,5.13,0,0,1-1.43-1.15l-.12-1.44a6.14,6.14,0,0,0,3.62,1.83,3.69,3.69,0,0,0,1.76-.2,6.36,6.36,0,0,0,1.67-1l.13-.11-1.34-1.59-1.34-1.61.93-.78,3.22,3.84a1.49,1.49,0,0,1,.38,1.07,1.38,1.38,0,0,1-.1.49,1.65,1.65,0,0,1-.33.42,5.54,5.54,0,0,1-1.19.76l1.47,1.75.86-.72.79-.66.56-.49.21-.18,1.39,1.65Z"/><path class="cls-2" d="M44.54,144.77l-2.11,2.77L37,143.4l-.69.91,2.82,2.14,1,.8.91.69.65.49.25.19-.74,1L35,144.86a1.5,1.5,0,0,1-.63-1,1.44,1.44,0,0,1,.33-1.08l.62-.82.62-.83,5.46,4.15.69-.91-5.59-4.24.72-.95ZM43.18,136a4.34,4.34,0,0,0,0,5.55l-1.4.08a4.23,4.23,0,0,1-1.11-1.91,3.58,3.58,0,0,1-.13-2.07,2,2,0,0,1-.84.38,3.71,3.71,0,0,1-1.13.07,4.52,4.52,0,0,1-2.17-.56l-.29-1.37a3.8,3.8,0,0,0,1.31.36,4.43,4.43,0,0,0,1.43-.09,4.48,4.48,0,0,0,2.59-1.78c.15-.2.27-.36.37-.47l.27-.32.11-.15,1.74,1.32Zm2.88,3.19c.22-.3.43-.58.62-.82l.62-.82,1.72,1.3-.17.22-.45.59-.63.83-.72,1-2,2.63-1.71-1.3,2-2.63-1-.8-1.07-.81.74-1Z"/><path class="cls-2" d="M57.54,144.14a1.33,1.33,0,0,1,0,1.07,6.62,6.62,0,0,1-3.94,3.84,6.84,6.84,0,0,1-4.58,0l-.72-1.28a6.21,6.21,0,0,0,4-.1A4.2,4.2,0,0,0,54,146.47a9.06,9.06,0,0,0,1.47-2.36l-2-.89-2-.89.51-1.11,4.65,2.12A1.49,1.49,0,0,1,57.54,144.14Zm-3.07,12.23s.08-.19.24-.52l.62-1.38c.26-.56.55-1.2.88-1.93l1-2.2c.34-.76.67-1.48,1-2.21l.88-1.93c.25-.56.46-1,.62-1.38s.24-.52.24-.52l2,.9-5.5,12.06Z"/><path class="cls-2" d="M66.92,154.56a3.66,3.66,0,0,1-1.37.49,6.67,6.67,0,0,1-1.49.14l-.86-1a8.46,8.46,0,0,0,1-.15,5.13,5.13,0,0,0,1-.26,7,7,0,0,0,.83-.4,3.23,3.23,0,0,0,.68-.54,5.25,5.25,0,0,0,1-1.62,14.11,14.11,0,0,0,.72-2.52l-3.3-.68.24-1.19,3.93.8a1.24,1.24,0,0,1,.88.61,1.5,1.5,0,0,1,.16,1.07l0,.1.93.19.4-2,2,.4-2.64,13-2-.4,1.4-6.83-1.77-.36.08-.36a6.15,6.15,0,0,1-.77.83A5,5,0,0,1,66.92,154.56Zm3.64-1.94.37-1.82-1-.2c-.11.32-.23.61-.35.9s-.31.57-.47.82Zm5.86-4-.12.56c-.09.38-.19.87-.31,1.47s-.27,1.32-.43,2.08-.32,1.57-.48,2.39-.33,1.6-.49,2.37-.3,1.48-.42,2.08-.23,1.1-.29,1.48-.11.56-.11.56l-2-.4,2.64-13Z"/><path class="cls-2" d="M84.46,162.1l0-2.24,0-2.27-5,.11,0-1.23h.52l1.4,0,2,0,2.26-.05,2.25,0c.72,0,1.37,0,1.95-.06l1.39,0h.52l0,1.23-5,.11c0,.84,0,1.6,0,2.26,0,.28,0,.55,0,.83s0,.51,0,.72a3.58,3.58,0,0,0,0,.51v.19ZM89.93,155l-7.59.16a1.47,1.47,0,0,1-1.1-.36,1.33,1.33,0,0,1-.44-1l0-2.34,0-2.34,2.16-.05s0,.09,0,.28,0,.38,0,.58l0,.86,4.78-.09v-.87l0-.86,2.15-.05s0,.1,0,.27,0,.41,0,.69,0,.62,0,1l0,1.14C89.88,152.86,89.91,153.87,89.93,155Zm-7-3,0,1.89,4.79-.1,0-1.89Z"/><path class="cls-2" d="M96.92,151.7l-.6-2.53-1.52.36-.28-1.18,9.31-2.24.28,1.19-1.51.36.61,2.53.81-.2.58-.14a.65.65,0,0,0,.26-.06l.28,1.2-9.57,2.3-.29-1.19a.85.85,0,0,0,.27-.07l.57-.14Zm3.19,4-.28-1.19-4.91,1.18-.29-1.2.51-.12,1.36-.33,1.9-.46,2.2-.52,2.17-.53,1.9-.45,1.35-.33.51-.12.28,1.2-4.89,1.18.29,1.19,3.43-.82,1.07,4.47-7.09,1.71a1.53,1.53,0,0,1-1.15-.11,1.37,1.37,0,0,1-.62-.94L97.48,158l-.37-1.54Zm1-5.05-.6-2.53-2.1.51L99,151.2Zm-1.62,6.47.5,2.1,4.34-1-.5-2.09Z"/><path class="cls-2" d="M113.74,143.38l2.36-1.16-.24-.48c0-.12-.11-.24-.16-.38s-.12-.24-.17-.35l-.07-.12,1.92-.95c.09.2.19.42.31.66l.79,1.61c.22.45.45.9.68,1.38s.49,1,.72,1.47.47.94.7,1.37l.57,1.16c.18.36.31.64.41.83l.15.3-1.92.95-.19-.37-.41-.85c-.18-.32-.34-.65-.5-1l-.58-1.17-2.39,1.17a4.2,4.2,0,0,1-.76,1.31,3.87,3.87,0,0,1-1.22,1,3.59,3.59,0,0,1-1.39.39A3.38,3.38,0,0,1,111,150a3.68,3.68,0,0,1-1.23-.63,2.8,2.8,0,0,1-.86-1.06,3,3,0,0,1-.32-1.35,3.92,3.92,0,0,1,.24-1.35,4.5,4.5,0,0,1,.72-1.2,3.76,3.76,0,0,1,1.15-.87,3.86,3.86,0,0,1,1.57-.41A4.52,4.52,0,0,1,113.74,143.38Zm-2.54,1.25a1.18,1.18,0,0,0-.45.41,1.27,1.27,0,0,0-.22.66,1.91,1.91,0,0,0,0,.79,2.76,2.76,0,0,0,.29.85,2.4,2.4,0,0,0,.48.71,2,2,0,0,0,.63.5,1.19,1.19,0,0,0,.65.21,1,1,0,0,0,.6-.09,1.09,1.09,0,0,0,.45-.43,1.57,1.57,0,0,0,.24-.65,3.59,3.59,0,0,0,0-.8,3,3,0,0,0-.27-.82,2.93,2.93,0,0,0-.42-.64,3.86,3.86,0,0,0-.57-.51,2.15,2.15,0,0,0-.68-.3A1.21,1.21,0,0,0,111.2,144.63Zm3.46,9.79-1.43-2.91,1.93-.95.07.13.18.38c.07.14.15.29.23.47l.28.56.78,1.58,3.2-1.58,1.18-.58,1-.5.74-.37.28-.13.54,1.09-7,3.46a1.66,1.66,0,0,1-1.15.13A1.42,1.42,0,0,1,114.66,154.42Zm1.18-8.37,1.73-.85-.93-1.89-1.71.84c.09.13.21.26.31.4a3.31,3.31,0,0,1,.29.47A3.49,3.49,0,0,1,115.84,146.05Z"/><path class="cls-2" d="M131.75,137.33l.77-.61.52-.42a1.1,1.1,0,0,0,.24-.19l.76.95-3.89,3.12,1.7,2.12.63.78.54.67.38.49.15.18-1.68,1.34-1.7-2.11-1.7-2.12-3.88,3.11-.76-.95.28-.23.73-.58,1-.83,1.19-1,3.2-2.57a3.76,3.76,0,0,0-.47-.91l-.62-.84-1.86-2.32c-1.08.86-2.06,1.63-2.91,2.32l-1.06.85c-.35.27-.66.52-.92.74s-.51.4-.67.54l-.26.22-.77-1,6.34-5.09a1.7,1.7,0,0,1,1.09-.38,1.39,1.39,0,0,1,1,.55l1.68,2.1c.09.11.19.26.29.41s.22.34.32.52l.23.56A2.24,2.24,0,0,1,131.75,137.33Z"/><path class="cls-2" d="M133.37,126.12a5,5,0,0,1,1-.92,4.24,4.24,0,0,1,1.13-.52,3,3,0,0,1,1.15-.08,2.5,2.5,0,0,1,1.08.51,2.42,2.42,0,0,1,.7.94,3,3,0,0,1,.19,1.14,3.27,3.27,0,0,1-.3,1.21,4.44,4.44,0,0,1-.67,1.13,4.22,4.22,0,0,1-1,.89,2.83,2.83,0,0,1-1.09.53,2.42,2.42,0,0,1-1.16.07,2,2,0,0,1-1.08-.47,2.23,2.23,0,0,1-.75-1,2.61,2.61,0,0,1-.12-1.18,3.73,3.73,0,0,1,.3-1.18A4.59,4.59,0,0,1,133.37,126.12Zm.91.73A1.24,1.24,0,0,0,134,128a1.76,1.76,0,0,0,.66,1,1.59,1.59,0,0,0,1.1.39,1.24,1.24,0,0,0,1-.52,1.26,1.26,0,0,0,.29-1.11,1.62,1.62,0,0,0-.62-1,2.27,2.27,0,0,0-.48-.29,2.14,2.14,0,0,0-.56-.11,2.31,2.31,0,0,0-.56.11A1.52,1.52,0,0,0,134.28,126.85Zm7.32.55-2.08,2.6,1.42,1.13-1.37,1.7-1.41-1.14L136.33,134l-.88-.71s.08-.09.23-.29.35-.43.6-.74l.85-1.06c.31-.38.64-.79,1-1.2l1-1.19.84-1,.61-.76.22-.27Zm2.87,1.1-.46-.37c-.15-.12-.31-.23-.49-.38L141.69,130l-.85-.68,1.82-2.27-3-2.45-3-2.44L138,120.5l.33.26.9.73,1.26,1,1.44,1.16,1.44,1.16,1.25,1,.9.72.34.28Zm-3,6.51-1.72-1.38,1.35-1.68.08.07a1.84,1.84,0,0,1,.22.17l.3.24.35.28,1,.76,2.32-2.89.85-1.05.76-.94.52-.65.19-.24,1,.76-5.06,6.29a1.49,1.49,0,0,1-1,.59A1.38,1.38,0,0,1,141.46,135Z"/><path class="cls-1" d="M73.63,87.72H66.77V78.05h6.86Zm.9,3a3.16,3.16,0,0,0,3.16-3.17V78.21A3.16,3.16,0,0,0,74.53,75H65.86a3.16,3.16,0,0,0-3.16,3.17v9.35a3.16,3.16,0,0,0,3.16,3.17Z"/><path class="cls-1" d="M87.37,87.71H84.44V78.06h7L94,75H83.46a3.16,3.16,0,0,0-3.16,3.17v9.35a3.16,3.16,0,0,0,3.16,3.17h8l2.59-3Z"/><path class="cls-1" d="M106.92,78.06l2.59-3H99a3.17,3.17,0,0,0-3.17,3.17v9.35A3.17,3.17,0,0,0,99,90.73h8l2.59-3H99.94V84.07h6.18l2.59-3H99.94v-3Z"/><polygon class="cls-1" points="127.21 75.04 111.19 75.04 111.19 78.06 116.71 78.06 116.71 90.72 120.75 90.72 120.75 78.06 124.63 78.06 127.21 75.04"/><rect class="cls-1" x="129.01" y="75.04" width="4.04" height="15.69"/><path class="cls-3" d="M77.8,62.1c15.53-5.38,23.54-.87,17.9,10.08A28.73,28.73,0,0,1,94,75a46.08,46.08,0,0,0,6.4-9.41c5.72-11.89-4.34-14.23-22.47-5.22a114.8,114.8,0,0,0-13.56,8A75.94,75.94,0,0,1,77.8,62.1Z"/><path class="cls-4" d="M57.37,101.75c-15.53,5.38-23.55.86-17.9-10.08a30,30,0,0,1,1.69-2.86,46.39,46.39,0,0,0-6.4,9.42c-5.72,11.89,4.34,14.23,22.47,5.22a114.8,114.8,0,0,0,13.56-8A77,77,0,0,1,57.37,101.75Z"/><polygon class="cls-1" points="61.6 74.97 56.48 74.97 49.85 81.88 49.85 74.97 45.79 74.97 45.79 90.72 49.85 90.72 49.85 84.01 56.3 90.72 61.42 90.72 53.92 82.94 61.6 74.97"/></g></svg>