<svg xmlns="http://www.w3.org/2000/svg" viewBox="0 0 184.14 33.26"><defs><style>.cls-1{fill:#0072bc;}</style></defs><title>Asset 1</title><g id="Layer_2" data-name="Layer 2"><path class="cls-1" d="M58.75,26.9H44.28V6.49H58.75Zm1.89,6.36a6.68,6.68,0,0,0,6.68-6.69V6.83A6.68,6.68,0,0,0,60.64.14H42.36a6.69,6.69,0,0,0-6.69,6.69V26.57a6.69,6.69,0,0,0,6.69,6.69Z"/><path class="cls-1" d="M87.75,26.87H81.57V6.51H96.3L101.75.13H79.5a6.69,6.69,0,0,0-6.69,6.69V26.56a6.7,6.7,0,0,0,6.69,6.69H96.3l5.45-6.39h-14Z"/><path class="cls-1" d="M120.45,26.87h-6.18V6.51H129L134.45.13H112.2a6.69,6.69,0,0,0-6.69,6.69V26.56a6.7,6.7,0,0,0,6.69,6.69H129l5.45-6.39h-14Z"/><polygon class="cls-1" points="132.76 12.82 113.25 12.82 113.25 19.2 127.31 19.2 132.76 12.82"/><polygon class="cls-1" points="171.81 0.14 138.01 0.14 138.01 6.52 166.36 6.52 171.81 0.14"/><rect class="cls-1" x="149.65" y="4.54" width="8.53" height="28.7"/><rect class="cls-1" x="175.62" y="0.13" width="8.53" height="33.11"/><polygon class="cls-1" points="33.36 0 22.56 0 8.57 14.58 8.57 0 0 0 0 33.24 8.57 33.24 8.57 19.06 22.17 33.24 32.98 33.24 17.15 16.82 33.36 0"/></g></svg>